<svg xmlns="http://www.w3.org/2000/svg" xmlns:xlink="http://www.w3.org/1999/xlink" width="500" zoomAndPan="magnify" viewBox="0 0 375 374.999991" height="500" preserveAspectRatio="xMidYMid meet" version="1.0"><defs><clipPath id="41ee73ff17"><path d="M 187.5 0 C 83.945312 0 0 83.945312 0 187.5 C 0 291.054688 83.945312 375 187.5 375 C 291.054688 375 375 291.054688 375 187.5 C 375 83.945312 291.054688 0 187.5 0 Z M 187.5 0 " clip-rule="nonzero"/></clipPath><clipPath id="eae53ca7b3"><path d="M 38 71.4375 L 337 71.4375 L 337 303.9375 L 38 303.9375 Z M 38 71.4375 " clip-rule="nonzero"/></clipPath></defs><g clip-path="url(#41ee73ff17)"><rect x="-37.5" width="450" fill="#ffffff" y="-37.499999" height="449.999989" fill-opacity="1"/></g><g clip-path="url(#eae53ca7b3)"><path fill="#000000" d="M 122.875 276.800781 L 122.972656 242.324219 L 90.960938 252.851562 L 84.910156 254.855469 L 79.824219 251.910156 L 38.054688 227.742188 L 38.199219 175.761719 L 38.199219 169.941406 L 42.921875 165.644531 L 145.679688 71.4375 L 186.898438 95.292969 L 193.332031 99.007812 L 193.332031 105.550781 L 193.285156 122.933594 L 219.679688 114.242188 L 265.164062 140.535156 L 265.164062 146.886719 L 265.09375 166.03125 L 291.292969 155.648438 L 336.972656 182.0625 L 336.921875 189.5 L 336.800781 242.035156 L 175.976562 301.765625 L 169.929688 304.011719 Z M 122.875 276.800781 " fill-opacity="1" fill-rule="nonzero"/></g><path fill="#ffffff" d="M 290.59375 165.015625 L 328.511719 186.9375 L 170.84375 245.488281 L 131.480469 222.71875 L 189.957031 162.265625 L 85.996094 196.425781 L 46.660156 173.683594 L 146.789062 81.84375 L 184.921875 103.886719 L 126.394531 153.886719 L 218.714844 123.441406 L 256.726562 145.414062 L 204.710938 199.058594 Z M 290.59375 165.015625 " fill-opacity="1" fill-rule="nonzero"/></svg>